<svg xmlns="http://www.w3.org/2000/svg" viewBox="0 0 1280 800">
  <defs>
    <linearGradient id="bg3" x1="0" y1="0" x2="1" y2="1">
      <stop offset="0%" stop-color="#0c1224"/>
      <stop offset="100%" stop-color="#121933"/>
    </linearGradient>
    <linearGradient id="brand3" x1="0" y1="0" x2="0" y2="1">
      <stop offset="0%" stop-color="#60a5fa"/>
      <stop offset="100%" stop-color="#3b82f6"/>
    </linearGradient>
  </defs>
  <rect width="100%" height="100%" fill="url(#bg3)"/>
  <!-- kanban board -->
  <g transform="translate(180,180)">
    <rect x="0" y="0" width="260" height="440" rx="16" fill="#11162d" stroke="#26304f"/>
    <rect x="280" y="0" width="260" height="440" rx="16" fill="#11162d" stroke="#26304f"/>
    <rect x="560" y="0" width="260" height="440" rx="16" fill="#11162d" stroke="#26304f"/>
    <rect x="840" y="0" width="260" height="440" rx="16" fill="#11162d" stroke="#26304f"/>
    <g fill="#1b2445" stroke="#2c3557">
      <rect x="18" y="60" width="224" height="56" rx="10"/>
      <rect x="18" y="128" width="224" height="56" rx="10"/>
      <rect x="298" y="60" width="224" height="56" rx="10"/>
      <rect x="578" y="60" width="224" height="56" rx="10"/>
      <rect x="858" y="60" width="224" height="56" rx="10"/>
    </g>
    <g>
      <rect x="18" y="16" width="80" height="18" rx="4" fill="url(#brand3)"/>
      <rect x="298" y="16" width="80" height="18" rx="4" fill="url(#brand3)"/>
      <rect x="578" y="16" width="80" height="18" rx="4" fill="url(#brand3)"/>
      <rect x="858" y="16" width="80" height="18" rx="4" fill="url(#brand3)"/>
    </g>
  </g>
</svg>
